<svg xmlns="http://www.w3.org/2000/svg" viewBox="0 0 249.03 261.02"><defs><style>.cls-1{fill:#fff;stroke-miterlimit:10;stroke-width:10px;}.cls-1,.cls-3{stroke:#4ac796;}.cls-2{fill:#4ac796;}.cls-3{fill:none;stroke-linejoin:round;stroke-width:5px;}</style></defs><g id="Lag_2" data-name="Lag 2"><g id="Lag_1-2" data-name="Lag 1"><path class="cls-1" d="M3.84,72.21,56.42,9.29A12,12,0,0,1,73.33,7.78L198.39,112.31a12,12,0,0,1,1.51,16.91l-52.58,62.91"/><path class="cls-2" d="M232.9,256a3.66,3.66,0,0,1-2.39-.87L155.7,192.63a3.78,3.78,0,0,1-.47-5.29l7.37-8.82a3.79,3.79,0,0,1,5.29-.47l74.8,62.53a3.75,3.75,0,0,1,.48,5.28l-7.38,8.82A3.75,3.75,0,0,1,232.9,256Z"/><path class="cls-2" d="M165.64,182.69l72.89,60.92-5.77,6.91-72.89-60.93,5.77-6.9m-.15-10.5a8.7,8.7,0,0,0-6.72,3.13l-7.38,8.82a8.77,8.77,0,0,0,1.11,12.32L227.3,259a8.77,8.77,0,0,0,12.33-1.1l7.37-8.82a8.78,8.78,0,0,0-1.1-12.33l-74.81-62.53a8.71,8.71,0,0,0-5.6-2Z"/><line class="cls-3" x1="5.82" y1="70.61" x2="152.37" y2="193.1"/><polygon class="cls-2" points="7.92 78.23 11.18 77.04 8.52 74.82 7.92 78.23"/><polygon class="cls-2" points="10.23 80.15 13.48 78.96 10.82 76.74 10.23 80.15"/><polygon class="cls-2" points="12.53 82.08 15.78 80.89 13.12 78.67 12.53 82.08"/><polygon class="cls-2" points="14.83 84 18.08 82.81 15.43 80.59 14.83 84"/><polygon class="cls-2" points="17.13 85.93 20.39 84.73 17.73 82.51 17.13 85.93"/><polygon class="cls-2" points="19.43 87.85 22.69 86.66 20.03 84.44 19.43 87.85"/><polygon class="cls-2" points="21.73 89.77 24.99 88.58 22.33 86.36 21.73 89.77"/><polygon class="cls-2" points="24.04 91.7 27.29 90.51 24.63 88.28 24.04 91.7"/><polygon class="cls-2" points="26.34 93.62 29.59 92.43 26.93 90.21 26.34 93.62"/><polygon class="cls-2" points="28.64 95.55 31.89 94.36 29.24 92.13 28.64 95.55"/><polygon class="cls-2" points="30.94 97.47 34.2 96.28 31.54 94.06 30.94 97.47"/><polygon class="cls-2" points="33.24 99.39 36.5 98.2 33.84 95.98 33.24 99.39"/><polygon class="cls-2" points="35.55 101.32 38.8 100.13 36.14 97.91 35.55 101.32"/><polygon class="cls-2" points="37.85 103.24 41.1 102.05 38.44 99.83 37.85 103.24"/><polygon class="cls-2" points="40.15 105.17 43.4 103.97 40.74 101.75 40.15 105.17"/><polygon class="cls-2" points="42.45 107.09 45.7 105.9 43.05 103.68 42.45 107.09"/><polygon class="cls-2" points="44.75 109.01 48.01 107.82 45.35 105.6 44.75 109.01"/><polygon class="cls-2" points="47.05 110.94 50.31 109.75 47.65 107.53 47.05 110.94"/><polygon class="cls-2" points="49.36 112.86 52.61 111.67 49.95 109.45 49.36 112.86"/><polygon class="cls-2" points="51.66 114.79 54.91 113.59 52.25 111.37 51.66 114.79"/><polygon class="cls-2" points="53.96 116.71 57.21 115.52 54.56 113.3 53.96 116.71"/><polygon class="cls-2" points="56.26 118.63 59.52 117.44 56.86 115.22 56.26 118.63"/><polygon class="cls-2" points="58.56 120.56 61.82 119.37 59.16 117.14 58.56 120.56"/><polygon class="cls-2" points="60.87 122.48 64.12 121.29 61.46 119.07 60.87 122.48"/><polygon class="cls-2" points="63.17 124.41 66.42 123.22 63.76 120.99 63.17 124.41"/><polygon class="cls-2" points="65.47 126.33 68.72 125.14 66.06 122.92 65.47 126.33"/><polygon class="cls-2" points="67.77 128.25 71.03 127.06 68.37 124.84 67.77 128.25"/><polygon class="cls-2" points="70.07 130.18 73.33 128.99 70.67 126.77 70.07 130.18"/><polygon class="cls-2" points="72.38 132.1 75.63 130.91 72.97 128.69 72.38 132.1"/><polygon class="cls-2" points="74.68 134.03 77.93 132.83 75.27 130.61 74.68 134.03"/><polygon class="cls-2" points="76.98 135.95 80.23 134.76 77.57 132.54 76.98 135.95"/><polygon class="cls-2" points="79.28 137.87 82.53 136.68 79.88 134.46 79.28 137.87"/><polygon class="cls-2" points="81.58 139.8 84.83 138.61 82.18 136.38 81.58 139.8"/><polygon class="cls-2" points="83.88 141.72 87.14 140.53 84.48 138.31 83.88 141.72"/><polygon class="cls-2" points="86.19 143.65 89.44 142.45 86.78 140.23 86.19 143.65"/><polygon class="cls-2" points="88.49 145.57 91.74 144.38 89.08 142.16 88.49 145.57"/><polygon class="cls-2" points="90.79 147.49 94.04 146.3 91.39 144.08 90.79 147.49"/><polygon class="cls-2" points="93.09 149.42 96.34 148.23 93.69 146 93.09 149.42"/><polygon class="cls-2" points="95.39 151.34 98.65 150.15 95.99 147.93 95.39 151.34"/><polygon class="cls-2" points="97.69 153.26 100.95 152.07 98.29 149.85 97.69 153.26"/><polygon class="cls-2" points="100 155.19 103.25 154 100.59 151.78 100 155.19"/><polygon class="cls-2" points="102.3 157.11 105.55 155.92 102.89 153.7 102.3 157.11"/><polygon class="cls-2" points="104.6 159.04 107.85 157.85 105.2 155.62 104.6 159.04"/><polygon class="cls-2" points="106.9 160.96 110.16 159.77 107.5 157.55 106.9 160.96"/><polygon class="cls-2" points="109.2 162.88 112.46 161.69 109.8 159.47 109.2 162.88"/><polygon class="cls-2" points="111.51 164.81 114.76 163.62 112.1 161.4 111.51 164.81"/><polygon class="cls-2" points="113.81 166.73 117.06 165.54 114.4 163.32 113.81 166.73"/><polygon class="cls-2" points="116.11 168.66 119.36 167.47 116.7 165.24 116.11 168.66"/><polygon class="cls-2" points="118.41 170.58 121.66 169.39 119.01 167.17 118.41 170.58"/><polygon class="cls-2" points="120.71 172.5 123.97 171.31 121.31 169.09 120.71 172.5"/><polygon class="cls-2" points="123.02 174.43 126.27 173.24 123.61 171.02 123.02 174.43"/><polygon class="cls-2" points="125.32 176.35 128.57 175.16 125.91 172.94 125.32 176.35"/><polygon class="cls-2" points="127.62 178.28 130.87 177.09 128.21 174.86 127.62 178.28"/><polygon class="cls-2" points="129.92 180.2 133.17 179.01 130.52 176.79 129.92 180.2"/><polygon class="cls-2" points="132.22 182.13 135.47 180.93 132.82 178.71 132.22 182.13"/><polygon class="cls-2" points="134.52 184.05 137.78 182.86 135.12 180.64 134.52 184.05"/><polygon class="cls-2" points="136.83 185.97 140.08 184.78 137.42 182.56 136.83 185.97"/><polygon class="cls-2" points="139.13 187.9 142.38 186.71 139.72 184.48 139.13 187.9"/><polygon class="cls-2" points="141.43 189.82 144.68 188.63 142.03 186.41 141.43 189.82"/></g></g></svg>