<?xml version="1.0" encoding="UTF-8"?><svg id="Lag_2" xmlns="http://www.w3.org/2000/svg" viewBox="0 0 367.41 341.06"><defs><style>.cls-1{stroke:#4ac796;stroke-miterlimit:10;stroke-width:20px;}.cls-1,.cls-2{fill:#4ac796;}</style></defs><g id="Lag_1-2"><path class="cls-2" d="M174.08,301.2c44.5-23.76,82.5-55.76,82.5-55.76,0,0,49-45,60.5-78.76-.81,2.37,2.5,14.76,2.5,22.76,0,15.03-4.86,62.25-33.46,87.62-30.12,26.95-70.54,30.38-112.05,24.13h0Z"/><path class="cls-1" d="M294.95,149.02c-14.97-40.06-53.58-68.58-98.86-68.58-58.27,0-105.5,47.23-105.5,105.5,0,42.05,24.6,78.35,60.19,95.3"/><path class="cls-1" d="M349.12,20.93c-14.85-16.42-45.35-14.3-88.21,6.12-13.74,6.55-29.19,16.28-43.33,25.39,10,1,20,3,28.45,7.03,28.93-13.48,53.58-17.66,62.55-16.03,11,2,26.07,15.59,4,52-21.28,35.11-51.35,77.38-92.86,114.91-41.5,37.54-84.27,69.02-121.83,85.59-28.31,12.49-42.81,7.11-51.31-3.51-8-10-7-25,3.73-49.1,3.26-7.33,7.97-14.35,13.33-21.41-4.07-11.5-4.86-15.09-6.07-25.5-9.2,11.96-17.54,25.28-24.37,36.53-24.61,40.6-29.77,70.74-14.93,87.15,6.59,7.29,16.27,10.92,28.75,10.92,15.62,0,35.63-5.7,59.46-17.05,38.76-18.47,86.18-44.76,129.09-83.56,42.9-38.8,76.35-85.65,98.61-122.37,24.61-40.6,29.77-70.74,14.93-87.15Z"/></g></svg>